# xmcd
#
# Track frame offsets:
#	150
#	16347
#	36962
#	50770
#
# Disc length: 886 seconds
#
# Revision: 5
# Processed by: cddbd v1.5PL3 Copyright (c) Steve Scherf et al.
# Submitted via: CDex 1.50Beta5
#
DISCID=2e037404
DTITLE=SHAKA LABBITS - STAND BY YOU!!
DYEAR=2002
DGENRE=Rock
TTITLE0=SHAKA LABBITS/STAND BY YOU!!
TTITLE1=175R/僕の声
TTITLE2=SHAKA LABBITS/G☆S☆G
TTITLE3=SHAKA LABBITS/STAND BY YOU!!(BACKING TRACK)
EXTD=
EXTT0=
EXTT1=
EXTT2=
EXTT3=
PLAYORDER=
